<svg width="10" height="11" viewBox="0 0 10 11" fill="none" xmlns="http://www.w3.org/2000/svg">
<path d="M6.82939 6.32193H4.66274C4.53009 6.32193 4.40291 6.26927 4.3092 6.17545C4.21539 6.08175 4.16272 5.95456 4.16272 5.82191V3.32196H5.16276V5.32189H6.8294L6.82939 6.32193Z" fill="#979797"/>
<path d="M8.62755 3.82197C9.16094 4.97826 9.11186 6.31949 8.49537 7.43381C7.87898 8.54811 6.76874 9.30214 5.50584 9.46467C4.24295 9.62719 2.97797 9.17856 2.09966 8.25665C1.22134 7.33474 0.834323 6.04967 1.05765 4.796C1.28098 3.54243 2.08778 2.46998 3.23059 1.90811C4.37328 1.34613 5.7153 1.36193 6.84451 1.95054C6.8881 1.61189 7.0347 1.29475 7.26441 1.04223C6.2122 0.507685 5.00487 0.362598 3.85584 0.632653C2.707 0.902713 1.69071 1.57037 0.986791 2.51774C0.282876 3.46498 -0.0633381 4.63067 0.0095474 5.80875C0.0824389 6.98664 0.569656 8.10085 1.38497 8.95422C2.20028 9.80754 3.29121 10.3449 4.46467 10.4712C5.63816 10.5976 6.81838 10.3048 7.79675 9.64469C8.77516 8.98446 9.48839 7.99957 9.81029 6.8642C10.1323 5.72875 10.0423 4.51609 9.55615 3.44046C9.2933 3.66006 8.96917 3.79328 8.62786 3.82212L8.62755 3.82197Z" fill="#979797"/>
<path d="M9.16265 2.15534C9.16265 2.52352 8.86424 2.82194 8.49606 2.82194C8.12788 2.82194 7.82935 2.52352 7.82935 2.15534C7.82935 1.78716 8.12788 1.48875 8.49606 1.48875C8.86424 1.48875 9.16265 1.78716 9.16265 2.15534Z" fill="#979797"/>
</svg>
