<svg width="20" height="20" viewBox="0 0 20 20" fill="none" xmlns="http://www.w3.org/2000/svg">
<path d="M13.6588 11.6439H9.32544C9.06015 11.6439 8.80578 11.5385 8.61837 11.3509C8.43074 11.1635 8.32541 10.9091 8.32541 10.6438V5.64392H10.3255V9.64379H13.6588L13.6588 11.6439Z" fill="white" fill-opacity="0.3"/>
<path d="M17.2551 6.64395C18.3219 8.95652 18.2237 11.639 16.9907 13.8676C15.758 16.0962 13.5375 17.6043 11.0117 17.9293C8.4859 18.2544 5.95595 17.3571 4.19931 15.5133C2.44268 13.6695 1.66865 11.0993 2.11531 8.59201C2.56196 6.08485 4.17556 3.93995 6.46118 2.81622C8.74655 1.69225 11.4306 1.72386 13.689 2.90109C13.7762 2.22378 14.0694 1.58951 14.5288 1.08446C12.4244 0.0153698 10.0097 -0.274803 7.71169 0.265306C5.41399 0.805426 3.38141 2.14075 1.97358 4.03547C0.565751 5.92996 -0.126676 8.26135 0.0190948 10.6175C0.164878 12.9733 1.13931 15.2017 2.76994 16.9084C4.40056 18.6151 6.58242 19.6898 8.92935 19.9425C11.2763 20.1952 13.6368 19.6095 15.5935 18.2894C17.5503 16.9689 18.9768 14.9991 19.6206 12.7284C20.2646 10.4575 20.0847 8.03218 19.1123 5.88092C18.5866 6.32013 17.9383 6.58656 17.2557 6.64423L17.2551 6.64395Z" fill="white" fill-opacity="0.3"/>
<path d="M18.3253 3.3107C18.3253 4.04705 17.7285 4.64389 16.9921 4.64389C16.2558 4.64389 15.6587 4.04705 15.6587 3.3107C15.6587 2.57434 16.2558 1.97751 16.9921 1.97751C17.7285 1.97751 18.3253 2.57434 18.3253 3.3107Z" fill="white" fill-opacity="0.3"/>
</svg>
